<?xml version="1.0" encoding="UTF-8" standalone="no"?>
<!DOCTYPE svg PUBLIC "-//W3C//DTD SVG 1.1//EN"
 "http://www.w3.org/Graphics/SVG/1.1/DTD/svg11.dtd">
<!-- Generated by graphviz version 2.40.1 (20161225.0304)
 -->
<!-- Title: autogroups Pages: 1 -->
<svg width="310pt" height="57pt"
 viewBox="0.00 0.00 309.85 57.00" xmlns="http://www.w3.org/2000/svg" xmlns:xlink="http://www.w3.org/1999/xlink">
<g id="graph0" class="graph" transform="scale(1 1) rotate(0) translate(4 53)">
<title>autogroups</title>
<!-- 5 -->
<g id="node1" class="node">
<title>5</title>
<polygon fill="none" stroke="#000000" points="302.012,-49 264.3607,-49 264.3607,-33 302.012,-33 302.012,-49"/>
<text text-anchor="middle" x="283.1863" y="-38.6" font-family="Times,serif" font-size="8.00" fill="#000000">master</text>
</g>
<!-- 4 -->
<g id="node2" class="node">
<title>4</title>
<ellipse fill="#000000" stroke="#000000" cx="223.1242" cy="-41" rx="5.4" ry="5.4"/>
</g>
<!-- 4&#45;&gt;5 -->
<g id="edge1" class="edge">
<title>4&#45;&gt;5</title>
<path fill="none" stroke="#000000" d="M228.6671,-41C236.7404,-41 252.1197,-41 264.491,-41"/>
</g>
<!-- 3 -->
<g id="node3" class="node">
<title>3</title>
<ellipse fill="#000000" stroke="#000000" cx="161.0621" cy="-41" rx="5.4" ry="5.4"/>
</g>
<!-- 3&#45;&gt;4 -->
<g id="edge2" class="edge">
<title>3&#45;&gt;4</title>
<path fill="none" stroke="#000000" d="M166.7895,-41C178.6726,-41 205.8738,-41 217.5893,-41"/>
</g>
<!-- 7 -->
<g id="node4" class="node">
<title>7</title>
<polygon fill="none" stroke="#000000" points="181.8876,-16 140.2366,-16 140.2366,0 181.8876,0 181.8876,-16"/>
<text text-anchor="middle" x="161.0621" y="-5.6" font-family="Times,serif" font-size="8.00" fill="#000000">develop</text>
</g>
<!-- 7&#45;&gt;4 -->
<g id="edge3" class="edge">
<title>7&#45;&gt;4</title>
<path fill="none" stroke="#000000" d="M176.4033,-16.1573C190.0435,-23.4101 209.1724,-33.5815 218.1291,-38.344"/>
</g>
<!-- 6 -->
<g id="node5" class="node">
<title>6</title>
<ellipse fill="#000000" stroke="#000000" cx="99" cy="-8" rx="5.4" ry="5.4"/>
</g>
<!-- 6&#45;&gt;7 -->
<g id="edge5" class="edge">
<title>6&#45;&gt;7</title>
<path fill="none" stroke="#000000" d="M104.7274,-8C112.7695,-8 127.8275,-8 140.3532,-8"/>
</g>
<!-- 2 -->
<g id="node6" class="node">
<title>2</title>
<ellipse fill="#000000" stroke="#000000" cx="52.2" cy="-41" rx="5.4" ry="5.4"/>
</g>
<!-- 2&#45;&gt;3 -->
<g id="edge4" class="edge">
<title>2&#45;&gt;3</title>
<path fill="none" stroke="#000000" d="M57.7482,-41C76.4659,-41 137.1481,-41 155.6543,-41"/>
</g>
<!-- 2&#45;&gt;6 -->
<g id="edge6" class="edge">
<title>2&#45;&gt;6</title>
<path fill="none" stroke="#000000" d="M56.8585,-37.7152C65.8291,-31.3898 85.4046,-17.5865 94.3604,-11.2715"/>
</g>
<!-- 1 -->
<g id="node7" class="node">
<title>1</title>
<ellipse fill="#000000" stroke="#000000" cx="5.4" cy="-41" rx="5.4" ry="5.4"/>
</g>
<!-- 1&#45;&gt;2 -->
<g id="edge7" class="edge">
<title>1&#45;&gt;2</title>
<path fill="none" stroke="#000000" d="M11.1386,-41C20.2184,-41 37.7802,-41 46.7053,-41"/>
</g>
</g>
</svg>
