<?xml version="1.0" encoding="UTF-8" standalone="no"?>
<!DOCTYPE svg PUBLIC "-//W3C//DTD SVG 1.1//EN"
 "http://www.w3.org/Graphics/SVG/1.1/DTD/svg11.dtd">
<!-- Generated by graphviz version 2.40.1 (20161225.0304)
 -->
<!-- Title: labeled Pages: 1 -->
<svg width="306pt" height="57pt"
 viewBox="0.00 0.00 306.29 57.00" xmlns="http://www.w3.org/2000/svg" xmlns:xlink="http://www.w3.org/1999/xlink">
<g id="graph0" class="graph" transform="scale(1 1) rotate(0) translate(4 53)">
<title>labeled</title>
<!-- 1 -->
<g id="node1" class="node">
<title>1</title>
<ellipse fill="#ffffff" stroke="#ffffff" cx="5.4" cy="-41" rx="5.4" ry="5.4"/>
</g>
<!-- 2 -->
<g id="node2" class="node">
<title>2</title>
<ellipse fill="#ffffff" stroke="#ffffff" cx="52.2" cy="-41" rx="5.4" ry="5.4"/>
</g>
<!-- 1&#45;&gt;2 -->
<g id="edge1" class="edge">
<title>1&#45;&gt;2</title>
<path fill="none" stroke="#ffffff" d="M11.1386,-41C20.2184,-41 37.7802,-41 46.7053,-41"/>
</g>
<!-- 3 -->
<g id="node3" class="node">
<title>3</title>
<ellipse fill="#ffffff" stroke="#ffffff" cx="159.2828" cy="-41" rx="5.4" ry="5.4"/>
</g>
<!-- 2&#45;&gt;3 -->
<g id="edge2" class="edge">
<title>2&#45;&gt;3</title>
<path fill="none" stroke="#ffffff" d="M57.6575,-41C75.984,-41 135.2079,-41 153.7079,-41"/>
</g>
<!-- 6 -->
<g id="node6" class="node">
<title>6</title>
<ellipse fill="#ffffff" stroke="#ffffff" cx="99" cy="-8" rx="5.4" ry="5.4"/>
</g>
<!-- 2&#45;&gt;6 -->
<g id="edge6" class="edge">
<title>2&#45;&gt;6</title>
<path fill="none" stroke="#ffffff" d="M56.8585,-37.7152C65.8291,-31.3898 85.4046,-17.5865 94.3604,-11.2715"/>
</g>
<!-- 4 -->
<g id="node4" class="node">
<title>4</title>
<ellipse fill="#ffffff" stroke="#ffffff" cx="219.5656" cy="-41" rx="5.4" ry="5.4"/>
</g>
<!-- 3&#45;&gt;4 -->
<g id="edge3" class="edge">
<title>3&#45;&gt;4</title>
<path fill="none" stroke="#ffffff" d="M164.846,-41C176.2718,-41 202.2775,-41 213.84,-41"/>
</g>
<!-- 5 -->
<g id="node5" class="node">
<title>5</title>
<polygon fill="none" stroke="#ffffff" points="298.4534,-49 260.8021,-49 260.8021,-33 298.4534,-33 298.4534,-49"/>
<text text-anchor="middle" x="279.6277" y="-38.6" font-family="Times,serif" font-size="8.00" fill="#ffffff">master</text>
</g>
<!-- 4&#45;&gt;5 -->
<g id="edge5" class="edge">
<title>4&#45;&gt;5</title>
<path fill="none" stroke="#ffffff" d="M225.1085,-41C233.1818,-41 248.5611,-41 260.9324,-41"/>
</g>
<!-- 7 -->
<g id="node7" class="node">
<title>7</title>
<polygon fill="none" stroke="#ffffff" points="178.0492,-16 140.5165,-16 140.5165,0 178.0492,0 178.0492,-16"/>
<text text-anchor="middle" x="159.2828" y="-5.6" font-family="Times,serif" font-size="8.00" fill="#ffffff">branch</text>
</g>
<!-- 6&#45;&gt;7 -->
<g id="edge7" class="edge">
<title>6&#45;&gt;7</title>
<path fill="none" stroke="#ffffff" d="M104.5632,-8C112.6079,-8 127.8803,-8 140.2503,-8"/>
</g>
<!-- 7&#45;&gt;4 -->
<g id="edge4" class="edge">
<title>7&#45;&gt;4</title>
<path fill="none" stroke="#ffffff" d="M174.1842,-16.1573C187.4333,-23.4101 206.0138,-33.5815 214.7137,-38.344"/>
</g>
</g>
</svg>
