<?xml version="1.0" encoding="UTF-8" standalone="no"?>
<!DOCTYPE svg PUBLIC "-//W3C//DTD SVG 1.1//EN"
 "http://www.w3.org/Graphics/SVG/1.1/DTD/svg11.dtd">
<!-- Generated by graphviz version 2.40.1 (20161225.0304)
 -->
<!-- Title: git Pages: 1 -->
<svg width="468pt" height="98pt"
 viewBox="0.00 0.00 468.34 98.00" xmlns="http://www.w3.org/2000/svg" xmlns:xlink="http://www.w3.org/1999/xlink">
<g id="graph0" class="graph" transform="scale(1 1) rotate(0) translate(4 94)">
<title>git</title>
<!-- 7844c2857baee48b3b7a408f4765636452adc2d1 -->
<g id="node1" class="node">
<title>7844c2857baee48b3b7a408f4765636452adc2d1</title>
<polygon fill="none" stroke="#ffffff" points="460.2756,-90 411.5486,-90 411.5486,-74 460.2756,-74 460.2756,-90"/>
<text text-anchor="middle" x="435.9121" y="-79.6" font-family="Times,serif" font-size="8.00" fill="#ffffff">tags/1.0^0</text>
</g>
<!-- 9cc57b9a05c051f547c350c7bc508de14b62b20d -->
<g id="node2" class="node">
<title>9cc57b9a05c051f547c350c7bc508de14b62b20d</title>
<polygon fill="none" stroke="#ffffff" points="375.4123,-52 326.6854,-52 326.6854,-36 375.4123,-36 375.4123,-52"/>
<text text-anchor="middle" x="351.0488" y="-41.6" font-family="Times,serif" font-size="8.00" fill="#ffffff">tags/1.0^2</text>
</g>
<!-- 9cc57b9a05c051f547c350c7bc508de14b62b20d&#45;&gt;7844c2857baee48b3b7a408f4765636452adc2d1 -->
<g id="edge2" class="edge">
<title>9cc57b9a05c051f547c350c7bc508de14b62b20d&#45;&gt;7844c2857baee48b3b7a408f4765636452adc2d1</title>
<path fill="none" stroke="#ffffff" d="M369.0461,-52.0588C383.4477,-58.5076 403.546,-67.5071 417.9407,-73.9528"/>
</g>
<!-- 56ba648f5181747b240071c5aacac5f1df128213 -->
<g id="node3" class="node">
<title>56ba648f5181747b240071c5aacac5f1df128213</title>
<polygon fill="none" stroke="#ffffff" points="290.4271,-16 234.1901,-16 234.1901,0 290.4271,0 290.4271,-16"/>
<text text-anchor="middle" x="262.3086" y="-5.6" font-family="Times,serif" font-size="8.00" fill="#ffffff">tags/1.0^2^2</text>
</g>
<!-- 56ba648f5181747b240071c5aacac5f1df128213&#45;&gt;9cc57b9a05c051f547c350c7bc508de14b62b20d -->
<g id="edge4" class="edge">
<title>56ba648f5181747b240071c5aacac5f1df128213&#45;&gt;9cc57b9a05c051f547c350c7bc508de14b62b20d</title>
<path fill="none" stroke="#ffffff" d="M282.4451,-16.169C297.0703,-22.1021 316.7626,-30.0908 331.2977,-35.9874"/>
</g>
<!-- 3d587a0c3aa3648d723dbc70b6961b9aa8c085f0 -->
<g id="node4" class="node">
<title>3d587a0c3aa3648d723dbc70b6961b9aa8c085f0</title>
<ellipse fill="#ffffff" stroke="#ffffff" cx="192.6" cy="-8" rx="5.4" ry="5.4"/>
</g>
<!-- 3d587a0c3aa3648d723dbc70b6961b9aa8c085f0&#45;&gt;56ba648f5181747b240071c5aacac5f1df128213 -->
<g id="edge5" class="edge">
<title>3d587a0c3aa3648d723dbc70b6961b9aa8c085f0&#45;&gt;56ba648f5181747b240071c5aacac5f1df128213</title>
<path fill="none" stroke="#ffffff" d="M198.0699,-8C205.8371,-8 220.6131,-8 234.0371,-8"/>
</g>
<!-- 322ef98652d63d6fa920a6e463bb18c67ddf9ab0 -->
<g id="node5" class="node">
<title>322ef98652d63d6fa920a6e463bb18c67ddf9ab0</title>
<ellipse fill="#ffffff" stroke="#ffffff" cx="145.8" cy="-44" rx="5.4" ry="5.4"/>
</g>
<!-- 322ef98652d63d6fa920a6e463bb18c67ddf9ab0&#45;&gt;9cc57b9a05c051f547c350c7bc508de14b62b20d -->
<g id="edge3" class="edge">
<title>322ef98652d63d6fa920a6e463bb18c67ddf9ab0&#45;&gt;9cc57b9a05c051f547c350c7bc508de14b62b20d</title>
<path fill="none" stroke="#ffffff" d="M151.2899,-44C176.1527,-44 279.0418,-44 326.6632,-44"/>
</g>
<!-- 322ef98652d63d6fa920a6e463bb18c67ddf9ab0&#45;&gt;3d587a0c3aa3648d723dbc70b6961b9aa8c085f0 -->
<g id="edge6" class="edge">
<title>322ef98652d63d6fa920a6e463bb18c67ddf9ab0&#45;&gt;3d587a0c3aa3648d723dbc70b6961b9aa8c085f0</title>
<path fill="none" stroke="#ffffff" d="M150.1189,-40.6777C158.9893,-33.8544 179.1785,-18.3242 188.155,-11.4192"/>
</g>
<!-- 9709d34c4997685d09f2ac4ee730a2c0b005f2c9 -->
<g id="node6" class="node">
<title>9709d34c4997685d09f2ac4ee730a2c0b005f2c9</title>
<ellipse fill="#ffffff" stroke="#ffffff" cx="99" cy="-44" rx="5.4" ry="5.4"/>
</g>
<!-- 9709d34c4997685d09f2ac4ee730a2c0b005f2c9&#45;&gt;322ef98652d63d6fa920a6e463bb18c67ddf9ab0 -->
<g id="edge7" class="edge">
<title>9709d34c4997685d09f2ac4ee730a2c0b005f2c9&#45;&gt;322ef98652d63d6fa920a6e463bb18c67ddf9ab0</title>
<path fill="none" stroke="#ffffff" d="M104.7386,-44C113.8184,-44 131.3802,-44 140.3053,-44"/>
</g>
<!-- 5500b660f0c73b4ac430833e7ed3a98bf720568c -->
<g id="node7" class="node">
<title>5500b660f0c73b4ac430833e7ed3a98bf720568c</title>
<ellipse fill="#ffffff" stroke="#ffffff" cx="52.2" cy="-82" rx="5.4" ry="5.4"/>
</g>
<!-- 5500b660f0c73b4ac430833e7ed3a98bf720568c&#45;&gt;7844c2857baee48b3b7a408f4765636452adc2d1 -->
<g id="edge1" class="edge">
<title>5500b660f0c73b4ac430833e7ed3a98bf720568c&#45;&gt;7844c2857baee48b3b7a408f4765636452adc2d1</title>
<path fill="none" stroke="#ffffff" d="M57.686,-82C72.1158,-82 112.325,-82 145.8,-82 145.8,-82 145.8,-82 262.3086,-82 315.5048,-82 377.8701,-82 411.4746,-82"/>
</g>
<!-- 5500b660f0c73b4ac430833e7ed3a98bf720568c&#45;&gt;9709d34c4997685d09f2ac4ee730a2c0b005f2c9 -->
<g id="edge8" class="edge">
<title>5500b660f0c73b4ac430833e7ed3a98bf720568c&#45;&gt;9709d34c4997685d09f2ac4ee730a2c0b005f2c9</title>
<path fill="none" stroke="#ffffff" d="M56.5189,-78.4932C65.3893,-71.2908 85.5785,-54.8978 94.555,-47.6092"/>
</g>
<!-- 88f57722951f486d0d96c23505d9a2807544af19 -->
<g id="node8" class="node">
<title>88f57722951f486d0d96c23505d9a2807544af19</title>
<ellipse fill="#ffffff" stroke="#ffffff" cx="5.4" cy="-82" rx="5.4" ry="5.4"/>
</g>
<!-- 88f57722951f486d0d96c23505d9a2807544af19&#45;&gt;5500b660f0c73b4ac430833e7ed3a98bf720568c -->
<g id="edge9" class="edge">
<title>88f57722951f486d0d96c23505d9a2807544af19&#45;&gt;5500b660f0c73b4ac430833e7ed3a98bf720568c</title>
<path fill="none" stroke="#ffffff" d="M11.1386,-82C20.2184,-82 37.7802,-82 46.7053,-82"/>
</g>
</g>
</svg>
