<?xml version="1.0" encoding="UTF-8" standalone="no"?>
<!DOCTYPE svg PUBLIC "-//W3C//DTD SVG 1.1//EN"
 "http://www.w3.org/Graphics/SVG/1.1/DTD/svg11.dtd">
<!-- Generated by graphviz version 2.38.0 (20140413.2041)
 -->
<!-- Title: G Pages: 1 -->
<svg width="307pt" height="58pt"
 viewBox="0.00 0.00 307.20 58.00" xmlns="http://www.w3.org/2000/svg" xmlns:xlink="http://www.w3.org/1999/xlink">
<g id="graph0" class="graph" transform="scale(1 1) rotate(0) translate(4 54)">
<title>G</title>
<!-- 1 -->
<g id="node1" class="node"><title>1</title>
<ellipse fill="white" stroke="white" cx="5.4" cy="-41.5" rx="5.4" ry="5.4"/>
</g>
<!-- 2 -->
<g id="node2" class="node"><title>2</title>
<ellipse fill="white" stroke="white" cx="52.2" cy="-41.5" rx="5.4" ry="5.4"/>
</g>
<!-- 1&#45;&gt;2 -->
<g id="edge1" class="edge"><title>1&#45;&gt;2</title>
<path fill="none" stroke="white" d="M10.8594,-41.5C19.4466,-41.5 38.1856,-41.5 46.7587,-41.5"/>
</g>
<!-- 3 -->
<g id="node3" class="node"><title>3</title>
<ellipse fill="white" stroke="white" cx="159.4" cy="-41.5" rx="5.4" ry="5.4"/>
</g>
<!-- 2&#45;&gt;3 -->
<g id="edge2" class="edge"><title>2&#45;&gt;3</title>
<path fill="none" stroke="white" d="M57.7203,-41.5C74.8673,-41.5 135.82,-41.5 153.537,-41.5"/>
</g>
<!-- 6 -->
<g id="node6" class="node"><title>6</title>
<ellipse fill="white" stroke="white" cx="99" cy="-8.5" rx="5.4" ry="5.4"/>
</g>
<!-- 2&#45;&gt;6 -->
<g id="edge5" class="edge"><title>2&#45;&gt;6</title>
<path fill="none" stroke="white" d="M57.0196,-38.6864C65.4836,-32.4518 85.7351,-17.5344 94.19,-11.3064"/>
</g>
<!-- 4 -->
<g id="node4" class="node"><title>4</title>
<ellipse fill="white" stroke="white" cx="219.8" cy="-41.5" rx="5.4" ry="5.4"/>
</g>
<!-- 3&#45;&gt;4 -->
<g id="edge3" class="edge"><title>3&#45;&gt;4</title>
<path fill="none" stroke="white" d="M164.983,-41.5C175.953,-41.5 203.614,-41.5 214.399,-41.5"/>
</g>
<!-- 5 -->
<g id="node5" class="node"><title>5</title>
<polygon fill="none" stroke="white" points="299.2,-50 261.2,-50 261.2,-33 299.2,-33 299.2,-50"/>
<text text-anchor="middle" x="280.2" y="-39.6" font-family="Times,serif" font-size="8.00" fill="white">master</text>
</g>
<!-- 4&#45;&gt;5 -->
<g id="edge4" class="edge"><title>4&#45;&gt;5</title>
<path fill="none" stroke="white" d="M225.383,-41.5C232.965,-41.5 248.521,-41.5 260.967,-41.5"/>
</g>
<!-- 7 -->
<g id="node7" class="node"><title>7</title>
<polygon fill="none" stroke="white" points="178.4,-17 140.4,-17 140.4,-0 178.4,-0 178.4,-17"/>
<text text-anchor="middle" x="159.4" y="-6.6" font-family="Times,serif" font-size="8.00" fill="white">branch</text>
</g>
<!-- 6&#45;&gt;7 -->
<g id="edge6" class="edge"><title>6&#45;&gt;7</title>
<path fill="none" stroke="white" d="M104.583,-8.5C112.165,-8.5 127.721,-8.5 140.167,-8.5"/>
</g>
<!-- 7&#45;&gt;4 -->
<g id="edge7" class="edge"><title>7&#45;&gt;4</title>
<path fill="none" stroke="white" d="M175.744,-17.1704C188.721,-24.5034 206.452,-34.5223 214.506,-39.0734"/>
</g>
</g>
</svg>
