<?xml version="1.0" encoding="UTF-8" standalone="no"?>
<!DOCTYPE svg PUBLIC "-//W3C//DTD SVG 1.1//EN"
 "http://www.w3.org/Graphics/SVG/1.1/DTD/svg11.dtd">
<!-- Generated by graphviz version 2.40.1 (20161225.0304)
 -->
<!-- Title: git Pages: 1 -->
<svg width="502pt" height="129pt"
 viewBox="0.00 0.00 502.41 129.00" xmlns="http://www.w3.org/2000/svg" xmlns:xlink="http://www.w3.org/1999/xlink">
<g id="graph0" class="graph" transform="scale(1 1) rotate(0) translate(4 125)">
<title>git</title>
<!-- 7844c2857baee48b3b7a408f4765636452adc2d1 -->
<g id="node1" class="node">
<title>7844c2857baee48b3b7a408f4765636452adc2d1</title>
<polygon fill="none" stroke="#ffffff" points="494.3428,-121 445.6158,-121 445.6158,-105 494.3428,-105 494.3428,-121"/>
<text text-anchor="middle" x="469.9793" y="-110.6" font-family="Times,serif" font-size="8.00" fill="#ffffff">tags/1.0^0</text>
</g>
<!-- 9cc57b9a05c051f547c350c7bc508de14b62b20d -->
<g id="node2" class="node">
<title>9cc57b9a05c051f547c350c7bc508de14b62b20d</title>
<polygon fill="none" stroke="#ffffff" points="409.4795,-83 360.7525,-83 360.7525,-67 409.4795,-67 409.4795,-83"/>
<text text-anchor="middle" x="385.116" y="-72.6" font-family="Times,serif" font-size="8.00" fill="#ffffff">tags/1.0^2</text>
</g>
<!-- 9cc57b9a05c051f547c350c7bc508de14b62b20d&#45;&gt;7844c2857baee48b3b7a408f4765636452adc2d1 -->
<g id="edge2" class="edge">
<title>9cc57b9a05c051f547c350c7bc508de14b62b20d&#45;&gt;7844c2857baee48b3b7a408f4765636452adc2d1</title>
<path fill="none" stroke="#ffffff" d="M403.1133,-83.0588C417.5149,-89.5076 437.6132,-98.5071 452.0079,-104.9528"/>
</g>
<!-- 56ba648f5181747b240071c5aacac5f1df128213 -->
<g id="node3" class="node">
<title>56ba648f5181747b240071c5aacac5f1df128213</title>
<polygon fill="none" stroke="#ffffff" points="324.4943,-47 268.2573,-47 268.2573,-31 324.4943,-31 324.4943,-47"/>
<text text-anchor="middle" x="296.3758" y="-36.6" font-family="Times,serif" font-size="8.00" fill="#ffffff">tags/1.0^2^2</text>
</g>
<!-- 56ba648f5181747b240071c5aacac5f1df128213&#45;&gt;9cc57b9a05c051f547c350c7bc508de14b62b20d -->
<g id="edge4" class="edge">
<title>56ba648f5181747b240071c5aacac5f1df128213&#45;&gt;9cc57b9a05c051f547c350c7bc508de14b62b20d</title>
<path fill="none" stroke="#ffffff" d="M316.5123,-47.169C331.1375,-53.1021 350.8298,-61.0908 365.3649,-66.9874"/>
</g>
<!-- 3d587a0c3aa3648d723dbc70b6961b9aa8c085f0 -->
<g id="node4" class="node">
<title>3d587a0c3aa3648d723dbc70b6961b9aa8c085f0</title>
<ellipse fill="#ffffff" stroke="#ffffff" cx="209.6336" cy="-39" rx="5.4" ry="5.4"/>
</g>
<!-- 3d587a0c3aa3648d723dbc70b6961b9aa8c085f0&#45;&gt;56ba648f5181747b240071c5aacac5f1df128213 -->
<g id="edge5" class="edge">
<title>3d587a0c3aa3648d723dbc70b6961b9aa8c085f0&#45;&gt;56ba648f5181747b240071c5aacac5f1df128213</title>
<path fill="none" stroke="#ffffff" d="M215.0597,-39C225.519,-39 249.1248,-39 268.2224,-39"/>
</g>
<!-- 322ef98652d63d6fa920a6e463bb18c67ddf9ab0 -->
<g id="node5" class="node">
<title>322ef98652d63d6fa920a6e463bb18c67ddf9ab0</title>
<ellipse fill="#ffffff" stroke="#ffffff" cx="145.8" cy="-75" rx="5.4" ry="5.4"/>
</g>
<!-- 322ef98652d63d6fa920a6e463bb18c67ddf9ab0&#45;&gt;9cc57b9a05c051f547c350c7bc508de14b62b20d -->
<g id="edge3" class="edge">
<title>322ef98652d63d6fa920a6e463bb18c67ddf9ab0&#45;&gt;9cc57b9a05c051f547c350c7bc508de14b62b20d</title>
<path fill="none" stroke="#ffffff" d="M151.2481,-75C179.078,-75 306.1653,-75 360.4343,-75"/>
</g>
<!-- 322ef98652d63d6fa920a6e463bb18c67ddf9ab0&#45;&gt;3d587a0c3aa3648d723dbc70b6961b9aa8c085f0 -->
<g id="edge6" class="edge">
<title>322ef98652d63d6fa920a6e463bb18c67ddf9ab0&#45;&gt;3d587a0c3aa3648d723dbc70b6961b9aa8c085f0</title>
<path fill="none" stroke="#ffffff" d="M150.8089,-72.1751C162.8004,-65.4123 193.0347,-48.3612 204.8226,-41.7132"/>
</g>
<!-- 9709d34c4997685d09f2ac4ee730a2c0b005f2c9 -->
<g id="node6" class="node">
<title>9709d34c4997685d09f2ac4ee730a2c0b005f2c9</title>
<ellipse fill="#ffffff" stroke="#ffffff" cx="99" cy="-75" rx="5.4" ry="5.4"/>
</g>
<!-- 9709d34c4997685d09f2ac4ee730a2c0b005f2c9&#45;&gt;322ef98652d63d6fa920a6e463bb18c67ddf9ab0 -->
<g id="edge7" class="edge">
<title>9709d34c4997685d09f2ac4ee730a2c0b005f2c9&#45;&gt;322ef98652d63d6fa920a6e463bb18c67ddf9ab0</title>
<path fill="none" stroke="#ffffff" d="M104.7386,-75C113.8184,-75 131.3802,-75 140.3053,-75"/>
</g>
<!-- fc33b0ebafa7e4fa80be19ed42208a610ba0e410 -->
<g id="node10" class="node">
<title>fc33b0ebafa7e4fa80be19ed42208a610ba0e410</title>
<ellipse fill="#ffffff" stroke="#ffffff" cx="145.8" cy="-8" rx="5.4" ry="5.4"/>
</g>
<!-- 9709d34c4997685d09f2ac4ee730a2c0b005f2c9&#45;&gt;fc33b0ebafa7e4fa80be19ed42208a610ba0e410 -->
<g id="edge11" class="edge">
<title>9709d34c4997685d09f2ac4ee730a2c0b005f2c9&#45;&gt;fc33b0ebafa7e4fa80be19ed42208a610ba0e410</title>
<path fill="none" stroke="#ffffff" d="M102.3657,-70.1815C111.0007,-57.8195 133.8634,-25.0887 142.4648,-12.7748"/>
</g>
<!-- 5500b660f0c73b4ac430833e7ed3a98bf720568c -->
<g id="node7" class="node">
<title>5500b660f0c73b4ac430833e7ed3a98bf720568c</title>
<ellipse fill="#ffffff" stroke="#ffffff" cx="52.2" cy="-113" rx="5.4" ry="5.4"/>
</g>
<!-- 5500b660f0c73b4ac430833e7ed3a98bf720568c&#45;&gt;7844c2857baee48b3b7a408f4765636452adc2d1 -->
<g id="edge1" class="edge">
<title>5500b660f0c73b4ac430833e7ed3a98bf720568c&#45;&gt;7844c2857baee48b3b7a408f4765636452adc2d1</title>
<path fill="none" stroke="#ffffff" d="M57.686,-113C72.1158,-113 112.325,-113 145.8,-113 145.8,-113 145.8,-113 296.3758,-113 349.572,-113 411.9373,-113 445.5418,-113"/>
</g>
<!-- 5500b660f0c73b4ac430833e7ed3a98bf720568c&#45;&gt;9709d34c4997685d09f2ac4ee730a2c0b005f2c9 -->
<g id="edge8" class="edge">
<title>5500b660f0c73b4ac430833e7ed3a98bf720568c&#45;&gt;9709d34c4997685d09f2ac4ee730a2c0b005f2c9</title>
<path fill="none" stroke="#ffffff" d="M56.5189,-109.4932C65.3893,-102.2908 85.5785,-85.8978 94.555,-78.6092"/>
</g>
<!-- 88f57722951f486d0d96c23505d9a2807544af19 -->
<g id="node8" class="node">
<title>88f57722951f486d0d96c23505d9a2807544af19</title>
<ellipse fill="#ffffff" stroke="#ffffff" cx="5.4" cy="-113" rx="5.4" ry="5.4"/>
</g>
<!-- 88f57722951f486d0d96c23505d9a2807544af19&#45;&gt;5500b660f0c73b4ac430833e7ed3a98bf720568c -->
<g id="edge9" class="edge">
<title>88f57722951f486d0d96c23505d9a2807544af19&#45;&gt;5500b660f0c73b4ac430833e7ed3a98bf720568c</title>
<path fill="none" stroke="#ffffff" d="M11.1386,-113C20.2184,-113 37.7802,-113 46.7053,-113"/>
</g>
<!-- 40a815510d4ddcabe9471b8942c35aa1228085d2 -->
<g id="node9" class="node">
<title>40a815510d4ddcabe9471b8942c35aa1228085d2</title>
<polygon fill="none" stroke="#ffffff" points="232.001,-16 187.2662,-16 187.2662,0 232.001,0 232.001,-16"/>
<text text-anchor="middle" x="209.6336" y="-5.6" font-family="Times,serif" font-size="8.00" fill="#ffffff">feature&#45;1</text>
</g>
<!-- fc33b0ebafa7e4fa80be19ed42208a610ba0e410&#45;&gt;40a815510d4ddcabe9471b8942c35aa1228085d2 -->
<g id="edge10" class="edge">
<title>fc33b0ebafa7e4fa80be19ed42208a610ba0e410&#45;&gt;40a815510d4ddcabe9471b8942c35aa1228085d2</title>
<path fill="none" stroke="#ffffff" d="M151.2424,-8C159.1417,-8 174.2466,-8 187.1142,-8"/>
</g>
</g>
</svg>
