<?xml version="1.0" encoding="UTF-8" standalone="no"?>
<!DOCTYPE svg PUBLIC "-//W3C//DTD SVG 1.1//EN"
 "http://www.w3.org/Graphics/SVG/1.1/DTD/svg11.dtd">
<!-- Generated by graphviz version 2.40.1 (20161225.0304)
 -->
<!-- Title: G Pages: 1 -->
<svg width="272pt" height="52pt"
 viewBox="0.00 0.00 271.70 51.80" xmlns="http://www.w3.org/2000/svg" xmlns:xlink="http://www.w3.org/1999/xlink">
<g id="graph0" class="graph" transform="scale(1 1) rotate(0) translate(4 47.8)">
<title>G</title>
<!-- 1 -->
<g id="node1" class="node">
<title>1</title>
<ellipse fill="#ffffff" stroke="#ffffff" cx="5.4" cy="-38.4" rx="5.4" ry="5.4"/>
</g>
<!-- 2 -->
<g id="node2" class="node">
<title>2</title>
<ellipse fill="#ffffff" stroke="#ffffff" cx="53.2" cy="-38.4" rx="5.4" ry="5.4"/>
</g>
<!-- 1&#45;&gt;2 -->
<g id="edge1" class="edge">
<title>1&#45;&gt;2</title>
<path fill="none" stroke="#ffffff" d="M10.8833,-38.4C20.1037,-38.4 38.6033,-38.4 47.7807,-38.4"/>
</g>
<!-- 3 -->
<g id="node3" class="node">
<title>3</title>
<ellipse fill="#ffffff" stroke="#ffffff" cx="131.8478" cy="-38.4" rx="5.4" ry="5.4"/>
</g>
<!-- 2&#45;&gt;3 -->
<g id="edge2" class="edge">
<title>2&#45;&gt;3</title>
<path fill="none" stroke="#ffffff" d="M58.6058,-38.4C72.9041,-38.4 111.6168,-38.4 126.1936,-38.4"/>
</g>
<!-- 6 -->
<g id="node6" class="node">
<title>6</title>
<ellipse fill="#ffffff" stroke="#ffffff" cx="101" cy="-5.4" rx="5.4" ry="5.4"/>
</g>
<!-- 2&#45;&gt;6 -->
<g id="edge5" class="edge">
<title>2&#45;&gt;6</title>
<path fill="none" stroke="#ffffff" d="M57.958,-35.1152C67.2148,-28.7245 87.5275,-14.7011 96.5407,-8.4786"/>
</g>
<!-- 4 -->
<g id="node4" class="node">
<title>4</title>
<ellipse fill="#ffffff" stroke="#ffffff" cx="210.4955" cy="-38.4" rx="5.4" ry="5.4"/>
</g>
<!-- 3&#45;&gt;4 -->
<g id="edge3" class="edge">
<title>3&#45;&gt;4</title>
<path fill="none" stroke="#ffffff" d="M137.2535,-38.4C151.5518,-38.4 190.2646,-38.4 204.8413,-38.4"/>
</g>
<!-- 5 -->
<g id="node5" class="node">
<title>5</title>
<ellipse fill="#ffffff" stroke="#ffffff" cx="258.2955" cy="-38.4" rx="5.4" ry="5.4"/>
</g>
<!-- 4&#45;&gt;5 -->
<g id="edge4" class="edge">
<title>4&#45;&gt;5</title>
<path fill="none" stroke="#ffffff" d="M215.9788,-38.4C225.1992,-38.4 243.6988,-38.4 252.8762,-38.4"/>
</g>
<!-- 10 -->
<g id="node7" class="node">
<title>10</title>
<ellipse fill="#ffffff" stroke="#ffffff" cx="162.6955" cy="-5.4" rx="5.4" ry="5.4"/>
</g>
<!-- 6&#45;&gt;10 -->
<g id="edge6" class="edge">
<title>6&#45;&gt;10</title>
<path fill="none" stroke="#ffffff" stroke-dasharray="5,2" d="M106.6936,-5.4C118.5065,-5.4 145.547,-5.4 157.1933,-5.4"/>
<text text-anchor="middle" x="131.8478" y="-8.2" font-family="Times,serif" font-size="14.00" fill="#ffffff">+3</text>
</g>
<!-- 10&#45;&gt;4 -->
<g id="edge7" class="edge">
<title>10&#45;&gt;4</title>
<path fill="none" stroke="#ffffff" d="M167.4535,-8.6848C176.7103,-15.0755 197.023,-29.0989 206.0362,-35.3214"/>
</g>
</g>
</svg>
