<?xml version="1.0" encoding="UTF-8" standalone="no"?>
<!DOCTYPE svg PUBLIC "-//W3C//DTD SVG 1.1//EN"
 "http://www.w3.org/Graphics/SVG/1.1/DTD/svg11.dtd">
<!-- Generated by graphviz version 2.40.1 (20161225.0304)
 -->
<!-- Title: G Pages: 1 -->
<svg width="383pt" height="92pt"
 viewBox="0.00 0.00 383.16 91.53" xmlns="http://www.w3.org/2000/svg" xmlns:xlink="http://www.w3.org/1999/xlink">
<g id="graph0" class="graph" transform="scale(1 1) rotate(0) translate(4 87.5269)">
<title>G</title>
<!-- 1 -->
<g id="node1" class="node">
<title>1</title>
<ellipse fill="none" stroke="#ffffff" cx="16.2635" cy="-67.2635" rx="16.0303" ry="16.0303"/>
<text text-anchor="middle" x="16.2635" y="-63.0635" font-family="Times,serif" font-size="14.00" fill="#ffffff">1</text>
</g>
<!-- 2 -->
<g id="node2" class="node">
<title>2</title>
<ellipse fill="none" stroke="#ffffff" cx="84.7904" cy="-67.2635" rx="16.0303" ry="16.0303"/>
<text text-anchor="middle" x="84.7904" y="-63.0635" font-family="Times,serif" font-size="14.00" fill="#ffffff">2</text>
</g>
<!-- 1&#45;&gt;2 -->
<g id="edge1" class="edge">
<title>1&#45;&gt;2</title>
<path fill="none" stroke="#ffffff" d="M32.8519,-67.2635C43.626,-67.2635 57.6111,-67.2635 68.3547,-67.2635"/>
</g>
<!-- 3 -->
<g id="node3" class="node">
<title>3</title>
<ellipse fill="none" stroke="#ffffff" cx="221.8442" cy="-67.2635" rx="16.0303" ry="16.0303"/>
<text text-anchor="middle" x="221.8442" y="-63.0635" font-family="Times,serif" font-size="14.00" fill="#ffffff">3</text>
</g>
<!-- 2&#45;&gt;3 -->
<g id="edge2" class="edge">
<title>2&#45;&gt;3</title>
<path fill="none" stroke="#ffffff" d="M101.3223,-67.2635C127.6646,-67.2635 178.8745,-67.2635 205.2537,-67.2635"/>
</g>
<!-- 6 -->
<g id="node6" class="node">
<title>6</title>
<ellipse fill="none" stroke="#ffffff" cx="153.3173" cy="-16.2635" rx="16.0303" ry="16.0303"/>
<text text-anchor="middle" x="153.3173" y="-12.0635" font-family="Times,serif" font-size="14.00" fill="#ffffff">6</text>
</g>
<!-- 2&#45;&gt;6 -->
<g id="edge5" class="edge">
<title>2&#45;&gt;6</title>
<path fill="none" stroke="#ffffff" d="M98.003,-57.4301C110.1376,-48.3992 128.0234,-35.088 140.1452,-26.0666"/>
</g>
<!-- 4 -->
<g id="node4" class="node">
<title>4</title>
<ellipse fill="none" stroke="#ffffff" cx="290.3711" cy="-67.2635" rx="16.0303" ry="16.0303"/>
<text text-anchor="middle" x="290.3711" y="-63.0635" font-family="Times,serif" font-size="14.00" fill="#ffffff">4</text>
</g>
<!-- 3&#45;&gt;4 -->
<g id="edge3" class="edge">
<title>3&#45;&gt;4</title>
<path fill="none" stroke="#ffffff" d="M238.4326,-67.2635C249.2068,-67.2635 263.1918,-67.2635 273.9354,-67.2635"/>
</g>
<!-- 5 -->
<g id="node5" class="node">
<title>5</title>
<ellipse fill="none" stroke="#ffffff" cx="358.898" cy="-67.2635" rx="16.0303" ry="16.0303"/>
<text text-anchor="middle" x="358.898" y="-63.0635" font-family="Times,serif" font-size="14.00" fill="#ffffff">5</text>
</g>
<!-- 4&#45;&gt;5 -->
<g id="edge4" class="edge">
<title>4&#45;&gt;5</title>
<path fill="none" stroke="#ffffff" d="M306.9596,-67.2635C317.7337,-67.2635 331.7187,-67.2635 342.4623,-67.2635"/>
</g>
<!-- 7 -->
<g id="node7" class="node">
<title>7</title>
<ellipse fill="none" stroke="#ffffff" cx="221.8442" cy="-16.2635" rx="16.0303" ry="16.0303"/>
<text text-anchor="middle" x="221.8442" y="-12.0635" font-family="Times,serif" font-size="14.00" fill="#ffffff">7</text>
</g>
<!-- 6&#45;&gt;7 -->
<g id="edge6" class="edge">
<title>6&#45;&gt;7</title>
<path fill="none" stroke="#ffffff" d="M169.9057,-16.2635C180.6799,-16.2635 194.6649,-16.2635 205.4085,-16.2635"/>
</g>
<!-- 7&#45;&gt;4 -->
<g id="edge7" class="edge">
<title>7&#45;&gt;4</title>
<path fill="none" stroke="#ffffff" d="M235.0569,-26.0968C247.1914,-35.1277 265.0773,-48.4389 277.199,-57.4603"/>
</g>
</g>
</svg>
