<?xml version="1.0" encoding="UTF-8" standalone="no"?>
<!DOCTYPE svg PUBLIC "-//W3C//DTD SVG 1.1//EN"
 "http://www.w3.org/Graphics/SVG/1.1/DTD/svg11.dtd">
<!-- Generated by graphviz version 2.40.1 (20161225.0304)
 -->
<!-- Title: G Pages: 1 -->
<svg width="253pt" height="52pt"
 viewBox="0.00 0.00 252.80 51.80" xmlns="http://www.w3.org/2000/svg" xmlns:xlink="http://www.w3.org/1999/xlink">
<g id="graph0" class="graph" transform="scale(1 1) rotate(0) translate(4 47.8)">
<title>G</title>
<!-- 1 -->
<g id="node1" class="node">
<title>1</title>
<ellipse fill="#ffffff" stroke="#ffffff" cx="5.4" cy="-38.4" rx="5.4" ry="5.4"/>
</g>
<!-- 2 -->
<g id="node2" class="node">
<title>2</title>
<ellipse fill="#ffffff" stroke="#ffffff" cx="52.2" cy="-38.4" rx="5.4" ry="5.4"/>
</g>
<!-- 1&#45;&gt;2 -->
<g id="edge1" class="edge">
<title>1&#45;&gt;2</title>
<path fill="none" stroke="#ffffff" d="M11.1386,-38.4C20.2184,-38.4 37.7802,-38.4 46.7053,-38.4"/>
</g>
<!-- 3 -->
<g id="node3" class="node">
<title>3</title>
<ellipse fill="#ffffff" stroke="#ffffff" cx="145.8" cy="-38.4" rx="5.4" ry="5.4"/>
</g>
<!-- 2&#45;&gt;3 -->
<g id="edge2" class="edge">
<title>2&#45;&gt;3</title>
<path fill="none" stroke="#ffffff" d="M57.7748,-38.4C74.4618,-38.4 123.8778,-38.4 140.3717,-38.4"/>
</g>
<!-- 6 -->
<g id="node6" class="node">
<title>6</title>
<ellipse fill="#ffffff" stroke="#ffffff" cx="99" cy="-5.4" rx="5.4" ry="5.4"/>
</g>
<!-- 2&#45;&gt;6 -->
<g id="edge5" class="edge">
<title>2&#45;&gt;6</title>
<path fill="none" stroke="#ffffff" d="M56.8585,-35.1152C65.8291,-28.7898 85.4046,-14.9865 94.3604,-8.6715"/>
</g>
<!-- 4 -->
<g id="node4" class="node">
<title>4</title>
<ellipse fill="#ffffff" stroke="#ffffff" cx="192.6" cy="-38.4" rx="5.4" ry="5.4"/>
</g>
<!-- 3&#45;&gt;4 -->
<g id="edge3" class="edge">
<title>3&#45;&gt;4</title>
<path fill="none" stroke="#ffffff" d="M151.5386,-38.4C160.6184,-38.4 178.1802,-38.4 187.1053,-38.4"/>
</g>
<!-- 5 -->
<g id="node5" class="node">
<title>5</title>
<ellipse fill="#ffffff" stroke="#ffffff" cx="239.4" cy="-38.4" rx="5.4" ry="5.4"/>
</g>
<!-- 4&#45;&gt;5 -->
<g id="edge4" class="edge">
<title>4&#45;&gt;5</title>
<path fill="none" stroke="#ffffff" d="M198.3386,-38.4C207.4184,-38.4 224.9802,-38.4 233.9053,-38.4"/>
</g>
<!-- 7 -->
<g id="node7" class="node">
<title>7</title>
<ellipse fill="#ffffff" stroke="#ffffff" cx="145.8" cy="-5.4" rx="5.4" ry="5.4"/>
</g>
<!-- 6&#45;&gt;7 -->
<g id="edge6" class="edge">
<title>6&#45;&gt;7</title>
<path fill="none" stroke="#ffffff" d="M104.7386,-5.4C113.8184,-5.4 131.3802,-5.4 140.3053,-5.4"/>
</g>
<!-- 7&#45;&gt;4 -->
<g id="edge7" class="edge">
<title>7&#45;&gt;4</title>
<path fill="none" stroke="#ffffff" d="M150.4585,-8.6848C159.4291,-15.0102 179.0046,-28.8135 187.9604,-35.1285"/>
</g>
</g>
</svg>
