<?xml version="1.0" encoding="UTF-8" standalone="no"?>
<!DOCTYPE svg PUBLIC "-//W3C//DTD SVG 1.1//EN"
 "http://www.w3.org/Graphics/SVG/1.1/DTD/svg11.dtd">
<!-- Generated by graphviz version 2.40.1 (20161225.0304)
 -->
<!-- Title: G Pages: 1 -->
<svg width="393pt" height="52pt"
 viewBox="0.00 0.00 393.20 51.80" xmlns="http://www.w3.org/2000/svg" xmlns:xlink="http://www.w3.org/1999/xlink">
<g id="graph0" class="graph" transform="scale(1 1) rotate(0) translate(4 47.8)">
<title>G</title>
<!-- 1 -->
<g id="node1" class="node">
<title>1</title>
<ellipse fill="#ffffff" stroke="#ffffff" cx="5.4" cy="-38.4" rx="5.4" ry="5.4"/>
</g>
<!-- 2 -->
<g id="node2" class="node">
<title>2</title>
<ellipse fill="#ffffff" stroke="#ffffff" cx="52.2" cy="-38.4" rx="5.4" ry="5.4"/>
</g>
<!-- 1&#45;&gt;2 -->
<g id="edge1" class="edge">
<title>1&#45;&gt;2</title>
<path fill="none" stroke="#ffffff" d="M11.1386,-38.4C20.2184,-38.4 37.7802,-38.4 46.7053,-38.4"/>
</g>
<!-- 3 -->
<g id="node3" class="node">
<title>3</title>
<ellipse fill="#ffffff" stroke="#ffffff" cx="145.8" cy="-38.4" rx="5.4" ry="5.4"/>
</g>
<!-- 2&#45;&gt;3 -->
<g id="edge2" class="edge">
<title>2&#45;&gt;3</title>
<path fill="none" stroke="#ffffff" d="M57.7748,-38.4C74.4618,-38.4 123.8778,-38.4 140.3717,-38.4"/>
</g>
<!-- 6 -->
<g id="node6" class="node">
<title>6</title>
<ellipse fill="#ffffff" stroke="#ffffff" cx="99" cy="-5.4" rx="5.4" ry="5.4"/>
</g>
<!-- 2&#45;&gt;6 -->
<g id="edge5" class="edge">
<title>2&#45;&gt;6</title>
<path fill="none" stroke="#ffffff" d="M56.8585,-35.1152C65.8291,-28.7898 85.4046,-14.9865 94.3604,-8.6715"/>
</g>
<!-- 4 -->
<g id="node4" class="node">
<title>4</title>
<ellipse fill="#ffffff" stroke="#ffffff" cx="333" cy="-38.4" rx="5.4" ry="5.4"/>
</g>
<!-- 3&#45;&gt;4 -->
<g id="edge3" class="edge">
<title>3&#45;&gt;4</title>
<path fill="none" stroke="#ffffff" d="M151.2006,-38.4C178.4171,-38.4 300.3103,-38.4 327.5774,-38.4"/>
</g>
<!-- 5 -->
<g id="node5" class="node">
<title>5</title>
<ellipse fill="#ffffff" stroke="#ffffff" cx="379.8" cy="-38.4" rx="5.4" ry="5.4"/>
</g>
<!-- 4&#45;&gt;5 -->
<g id="edge4" class="edge">
<title>4&#45;&gt;5</title>
<path fill="none" stroke="#ffffff" d="M338.7386,-38.4C347.8184,-38.4 365.3802,-38.4 374.3053,-38.4"/>
</g>
<!-- 7 -->
<g id="node7" class="node">
<title>7</title>
<ellipse fill="#ffffff" stroke="#ffffff" cx="145.8" cy="-5.4" rx="5.4" ry="5.4"/>
</g>
<!-- 6&#45;&gt;7 -->
<g id="edge6" class="edge">
<title>6&#45;&gt;7</title>
<path fill="none" stroke="#ffffff" d="M104.7386,-5.4C113.8184,-5.4 131.3802,-5.4 140.3053,-5.4"/>
</g>
<!-- 8 -->
<g id="node8" class="node">
<title>8</title>
<ellipse fill="#ffffff" stroke="#ffffff" cx="192.6" cy="-5.4" rx="5.4" ry="5.4"/>
</g>
<!-- 7&#45;&gt;8 -->
<g id="edge7" class="edge">
<title>7&#45;&gt;8</title>
<path fill="none" stroke="#ffffff" d="M151.5386,-5.4C160.6184,-5.4 178.1802,-5.4 187.1053,-5.4"/>
</g>
<!-- 9 -->
<g id="node9" class="node">
<title>9</title>
<ellipse fill="#ffffff" stroke="#ffffff" cx="239.4" cy="-5.4" rx="5.4" ry="5.4"/>
</g>
<!-- 8&#45;&gt;9 -->
<g id="edge8" class="edge">
<title>8&#45;&gt;9</title>
<path fill="none" stroke="#ffffff" d="M198.3386,-5.4C207.4184,-5.4 224.9802,-5.4 233.9053,-5.4"/>
</g>
<!-- 10 -->
<g id="node10" class="node">
<title>10</title>
<ellipse fill="#ffffff" stroke="#ffffff" cx="286.2" cy="-5.4" rx="5.4" ry="5.4"/>
</g>
<!-- 9&#45;&gt;10 -->
<g id="edge9" class="edge">
<title>9&#45;&gt;10</title>
<path fill="none" stroke="#ffffff" d="M245.1386,-5.4C254.2184,-5.4 271.7802,-5.4 280.7053,-5.4"/>
</g>
<!-- 10&#45;&gt;4 -->
<g id="edge10" class="edge">
<title>10&#45;&gt;4</title>
<path fill="none" stroke="#ffffff" d="M290.8585,-8.6848C299.8291,-15.0102 319.4046,-28.8135 328.3604,-35.1285"/>
</g>
</g>
</svg>
