<?xml version="1.0" encoding="UTF-8" standalone="no"?>
<!DOCTYPE svg PUBLIC "-//W3C//DTD SVG 1.1//EN"
 "http://www.w3.org/Graphics/SVG/1.1/DTD/svg11.dtd">
<!-- Generated by graphviz version 2.40.1 (20161225.0304)
 -->
<!-- Title: nogroups Pages: 1 -->
<svg width="310pt" height="52pt"
 viewBox="0.00 0.00 309.85 52.40" xmlns="http://www.w3.org/2000/svg" xmlns:xlink="http://www.w3.org/1999/xlink">
<g id="graph0" class="graph" transform="scale(1 1) rotate(0) translate(4 48.4)">
<title>nogroups</title>
<!-- 5 -->
<g id="node1" class="node">
<title>5</title>
<polygon fill="none" stroke="#000000" points="302.012,-31 264.3607,-31 264.3607,-15 302.012,-15 302.012,-31"/>
<text text-anchor="middle" x="283.1863" y="-20.6" font-family="Times,serif" font-size="8.00" fill="#000000">master</text>
</g>
<!-- 4 -->
<g id="node2" class="node">
<title>4</title>
<ellipse fill="#000000" stroke="#000000" cx="223.1242" cy="-23" rx="5.4" ry="5.4"/>
</g>
<!-- 4&#45;&gt;5 -->
<g id="edge1" class="edge">
<title>4&#45;&gt;5</title>
<path fill="none" stroke="#000000" d="M228.6671,-23C236.7404,-23 252.1197,-23 264.491,-23"/>
</g>
<!-- 3 -->
<g id="node3" class="node">
<title>3</title>
<ellipse fill="#000000" stroke="#000000" cx="161.0621" cy="-39" rx="5.4" ry="5.4"/>
</g>
<!-- 3&#45;&gt;4 -->
<g id="edge2" class="edge">
<title>3&#45;&gt;4</title>
<path fill="none" stroke="#000000" d="M166.3535,-37.6358C178.0788,-34.613 206.1334,-27.3803 217.8462,-24.3607"/>
</g>
<!-- 7 -->
<g id="node4" class="node">
<title>7</title>
<polygon fill="none" stroke="#000000" points="181.8876,-16 140.2366,-16 140.2366,0 181.8876,0 181.8876,-16"/>
<text text-anchor="middle" x="161.0621" y="-5.6" font-family="Times,serif" font-size="8.00" fill="#000000">develop</text>
</g>
<!-- 7&#45;&gt;4 -->
<g id="edge3" class="edge">
<title>7&#45;&gt;4</title>
<path fill="none" stroke="#000000" d="M181.7279,-12.9948C194.422,-16.0629 209.7308,-19.7629 217.7015,-21.6894"/>
</g>
<!-- 6 -->
<g id="node5" class="node">
<title>6</title>
<ellipse fill="#000000" stroke="#000000" cx="99" cy="-7" rx="5.4" ry="5.4"/>
</g>
<!-- 6&#45;&gt;7 -->
<g id="edge5" class="edge">
<title>6&#45;&gt;7</title>
<path fill="none" stroke="#000000" d="M104.7274,-7.0923C112.7695,-7.2219 127.8275,-7.4645 140.3532,-7.6663"/>
</g>
<!-- 2 -->
<g id="node6" class="node">
<title>2</title>
<ellipse fill="#000000" stroke="#000000" cx="52.2" cy="-23" rx="5.4" ry="5.4"/>
</g>
<!-- 2&#45;&gt;3 -->
<g id="edge4" class="edge">
<title>2&#45;&gt;3</title>
<path fill="none" stroke="#000000" d="M57.7482,-23.8154C76.4659,-26.5665 137.1481,-35.4852 155.6543,-38.2052"/>
</g>
<!-- 2&#45;&gt;6 -->
<g id="edge6" class="edge">
<title>2&#45;&gt;6</title>
<path fill="none" stroke="#000000" d="M57.5686,-21.1646C66.5961,-18.0783 84.7087,-11.8859 93.6941,-8.814"/>
</g>
<!-- 1 -->
<g id="node7" class="node">
<title>1</title>
<ellipse fill="#000000" stroke="#000000" cx="5.4" cy="-23" rx="5.4" ry="5.4"/>
</g>
<!-- 1&#45;&gt;2 -->
<g id="edge7" class="edge">
<title>1&#45;&gt;2</title>
<path fill="none" stroke="#000000" d="M11.1386,-23C20.2184,-23 37.7802,-23 46.7053,-23"/>
</g>
</g>
</svg>
