<?xml version="1.0" encoding="UTF-8" standalone="no"?>
<!DOCTYPE svg PUBLIC "-//W3C//DTD SVG 1.1//EN"
 "http://www.w3.org/Graphics/SVG/1.1/DTD/svg11.dtd">
<!-- Generated by graphviz version 2.40.1 (20161225.0304)
 -->
<!-- Title: git Pages: 1 -->
<svg width="502pt" height="129pt"
 viewBox="0.00 0.00 502.41 129.00" xmlns="http://www.w3.org/2000/svg" xmlns:xlink="http://www.w3.org/1999/xlink">
<g id="graph0" class="graph" transform="scale(1 1) rotate(0) translate(4 125)">
<title>git</title>
<!-- a9d99cc79a7c93cc70e02cb1324e86f7bb17057b -->
<g id="node1" class="node">
<title>a9d99cc79a7c93cc70e02cb1324e86f7bb17057b</title>
<polygon fill="none" stroke="#000000" points="494.3428,-121 445.6158,-121 445.6158,-105 494.3428,-105 494.3428,-121"/>
<text text-anchor="middle" x="469.9793" y="-110.6" font-family="Times,serif" font-size="8.00" fill="#000000">tags/1.0^0</text>
</g>
<!-- c0b28cdde9ec4a2b76b47148f3df84e0a05381a1 -->
<g id="node2" class="node">
<title>c0b28cdde9ec4a2b76b47148f3df84e0a05381a1</title>
<polygon fill="none" stroke="#000000" points="409.4795,-83 360.7525,-83 360.7525,-67 409.4795,-67 409.4795,-83"/>
<text text-anchor="middle" x="385.116" y="-72.6" font-family="Times,serif" font-size="8.00" fill="#000000">tags/1.0^2</text>
</g>
<!-- c0b28cdde9ec4a2b76b47148f3df84e0a05381a1&#45;&gt;a9d99cc79a7c93cc70e02cb1324e86f7bb17057b -->
<g id="edge2" class="edge">
<title>c0b28cdde9ec4a2b76b47148f3df84e0a05381a1&#45;&gt;a9d99cc79a7c93cc70e02cb1324e86f7bb17057b</title>
<path fill="none" stroke="#000000" d="M403.1133,-83.0588C417.5149,-89.5076 437.6132,-98.5071 452.0079,-104.9528"/>
</g>
<!-- ec4e31b98dd196014c7d3853c7f16c0dbe879bf6 -->
<g id="node3" class="node">
<title>ec4e31b98dd196014c7d3853c7f16c0dbe879bf6</title>
<polygon fill="none" stroke="#000000" points="324.4943,-47 268.2573,-47 268.2573,-31 324.4943,-31 324.4943,-47"/>
<text text-anchor="middle" x="296.3758" y="-36.6" font-family="Times,serif" font-size="8.00" fill="#000000">tags/1.0^2^2</text>
</g>
<!-- ec4e31b98dd196014c7d3853c7f16c0dbe879bf6&#45;&gt;c0b28cdde9ec4a2b76b47148f3df84e0a05381a1 -->
<g id="edge4" class="edge">
<title>ec4e31b98dd196014c7d3853c7f16c0dbe879bf6&#45;&gt;c0b28cdde9ec4a2b76b47148f3df84e0a05381a1</title>
<path fill="none" stroke="#000000" d="M316.5123,-47.169C331.1375,-53.1021 350.8298,-61.0908 365.3649,-66.9874"/>
</g>
<!-- 264f9d5a4da414201ac10068373eb4d5576bbe17 -->
<g id="node4" class="node">
<title>264f9d5a4da414201ac10068373eb4d5576bbe17</title>
<ellipse fill="#000000" stroke="#000000" cx="209.6336" cy="-39" rx="5.4" ry="5.4"/>
</g>
<!-- 264f9d5a4da414201ac10068373eb4d5576bbe17&#45;&gt;ec4e31b98dd196014c7d3853c7f16c0dbe879bf6 -->
<g id="edge5" class="edge">
<title>264f9d5a4da414201ac10068373eb4d5576bbe17&#45;&gt;ec4e31b98dd196014c7d3853c7f16c0dbe879bf6</title>
<path fill="none" stroke="#000000" d="M215.0597,-39C225.519,-39 249.1248,-39 268.2224,-39"/>
</g>
<!-- c7b140b9e6ed92536a21940b7e22c09728ba0802 -->
<g id="node5" class="node">
<title>c7b140b9e6ed92536a21940b7e22c09728ba0802</title>
<ellipse fill="#000000" stroke="#000000" cx="145.8" cy="-75" rx="5.4" ry="5.4"/>
</g>
<!-- c7b140b9e6ed92536a21940b7e22c09728ba0802&#45;&gt;c0b28cdde9ec4a2b76b47148f3df84e0a05381a1 -->
<g id="edge3" class="edge">
<title>c7b140b9e6ed92536a21940b7e22c09728ba0802&#45;&gt;c0b28cdde9ec4a2b76b47148f3df84e0a05381a1</title>
<path fill="none" stroke="#000000" d="M151.2481,-75C179.078,-75 306.1653,-75 360.4343,-75"/>
</g>
<!-- c7b140b9e6ed92536a21940b7e22c09728ba0802&#45;&gt;264f9d5a4da414201ac10068373eb4d5576bbe17 -->
<g id="edge6" class="edge">
<title>c7b140b9e6ed92536a21940b7e22c09728ba0802&#45;&gt;264f9d5a4da414201ac10068373eb4d5576bbe17</title>
<path fill="none" stroke="#000000" d="M150.8089,-72.1751C162.8004,-65.4123 193.0347,-48.3612 204.8226,-41.7132"/>
</g>
<!-- 4d911f8e051c45da5a25b525d975ec092510bd83 -->
<g id="node6" class="node">
<title>4d911f8e051c45da5a25b525d975ec092510bd83</title>
<ellipse fill="#000000" stroke="#000000" cx="99" cy="-75" rx="5.4" ry="5.4"/>
</g>
<!-- 4d911f8e051c45da5a25b525d975ec092510bd83&#45;&gt;c7b140b9e6ed92536a21940b7e22c09728ba0802 -->
<g id="edge7" class="edge">
<title>4d911f8e051c45da5a25b525d975ec092510bd83&#45;&gt;c7b140b9e6ed92536a21940b7e22c09728ba0802</title>
<path fill="none" stroke="#000000" d="M104.7386,-75C113.8184,-75 131.3802,-75 140.3053,-75"/>
</g>
<!-- b00b22aa0d161c8d450d4900c7b060a1b9dacfaa -->
<g id="node10" class="node">
<title>b00b22aa0d161c8d450d4900c7b060a1b9dacfaa</title>
<ellipse fill="#000000" stroke="#000000" cx="145.8" cy="-8" rx="5.4" ry="5.4"/>
</g>
<!-- 4d911f8e051c45da5a25b525d975ec092510bd83&#45;&gt;b00b22aa0d161c8d450d4900c7b060a1b9dacfaa -->
<g id="edge11" class="edge">
<title>4d911f8e051c45da5a25b525d975ec092510bd83&#45;&gt;b00b22aa0d161c8d450d4900c7b060a1b9dacfaa</title>
<path fill="none" stroke="#000000" d="M102.3657,-70.1815C111.0007,-57.8195 133.8634,-25.0887 142.4648,-12.7748"/>
</g>
<!-- f8889560b58c73b96b4237df048dcd1e65fb76ff -->
<g id="node7" class="node">
<title>f8889560b58c73b96b4237df048dcd1e65fb76ff</title>
<ellipse fill="#000000" stroke="#000000" cx="52.2" cy="-113" rx="5.4" ry="5.4"/>
</g>
<!-- f8889560b58c73b96b4237df048dcd1e65fb76ff&#45;&gt;a9d99cc79a7c93cc70e02cb1324e86f7bb17057b -->
<g id="edge1" class="edge">
<title>f8889560b58c73b96b4237df048dcd1e65fb76ff&#45;&gt;a9d99cc79a7c93cc70e02cb1324e86f7bb17057b</title>
<path fill="none" stroke="#000000" d="M57.686,-113C72.1158,-113 112.325,-113 145.8,-113 145.8,-113 145.8,-113 296.3758,-113 349.572,-113 411.9373,-113 445.5418,-113"/>
</g>
<!-- f8889560b58c73b96b4237df048dcd1e65fb76ff&#45;&gt;4d911f8e051c45da5a25b525d975ec092510bd83 -->
<g id="edge8" class="edge">
<title>f8889560b58c73b96b4237df048dcd1e65fb76ff&#45;&gt;4d911f8e051c45da5a25b525d975ec092510bd83</title>
<path fill="none" stroke="#000000" d="M56.5189,-109.4932C65.3893,-102.2908 85.5785,-85.8978 94.555,-78.6092"/>
</g>
<!-- 4cfc77308309506abd61d4a331c9ff6404d96424 -->
<g id="node8" class="node">
<title>4cfc77308309506abd61d4a331c9ff6404d96424</title>
<ellipse fill="#000000" stroke="#000000" cx="5.4" cy="-113" rx="5.4" ry="5.4"/>
</g>
<!-- 4cfc77308309506abd61d4a331c9ff6404d96424&#45;&gt;f8889560b58c73b96b4237df048dcd1e65fb76ff -->
<g id="edge9" class="edge">
<title>4cfc77308309506abd61d4a331c9ff6404d96424&#45;&gt;f8889560b58c73b96b4237df048dcd1e65fb76ff</title>
<path fill="none" stroke="#000000" d="M11.1386,-113C20.2184,-113 37.7802,-113 46.7053,-113"/>
</g>
<!-- 230550a4b91c7fb0d518b74a418f05e66b85bbbc -->
<g id="node9" class="node">
<title>230550a4b91c7fb0d518b74a418f05e66b85bbbc</title>
<polygon fill="none" stroke="#000000" points="232.001,-16 187.2662,-16 187.2662,0 232.001,0 232.001,-16"/>
<text text-anchor="middle" x="209.6336" y="-5.6" font-family="Times,serif" font-size="8.00" fill="#000000">feature&#45;1</text>
</g>
<!-- b00b22aa0d161c8d450d4900c7b060a1b9dacfaa&#45;&gt;230550a4b91c7fb0d518b74a418f05e66b85bbbc -->
<g id="edge10" class="edge">
<title>b00b22aa0d161c8d450d4900c7b060a1b9dacfaa&#45;&gt;230550a4b91c7fb0d518b74a418f05e66b85bbbc</title>
<path fill="none" stroke="#000000" d="M151.2424,-8C159.1417,-8 174.2466,-8 187.1142,-8"/>
</g>
</g>
</svg>
