<?xml version="1.0" encoding="UTF-8" standalone="no"?>
<!DOCTYPE svg PUBLIC "-//W3C//DTD SVG 1.1//EN"
 "http://www.w3.org/Graphics/SVG/1.1/DTD/svg11.dtd">
<!-- Generated by graphviz version 2.40.1 (20161225.0304)
 -->
<!-- Title: git Pages: 1 -->
<svg width="468pt" height="98pt"
 viewBox="0.00 0.00 468.34 98.00" xmlns="http://www.w3.org/2000/svg" xmlns:xlink="http://www.w3.org/1999/xlink">
<g id="graph0" class="graph" transform="scale(1 1) rotate(0) translate(4 94)">
<title>git</title>
<!-- a9d99cc79a7c93cc70e02cb1324e86f7bb17057b -->
<g id="node1" class="node">
<title>a9d99cc79a7c93cc70e02cb1324e86f7bb17057b</title>
<polygon fill="none" stroke="#000000" points="460.2756,-90 411.5486,-90 411.5486,-74 460.2756,-74 460.2756,-90"/>
<text text-anchor="middle" x="435.9121" y="-79.6" font-family="Times,serif" font-size="8.00" fill="#000000">tags/1.0^0</text>
</g>
<!-- c0b28cdde9ec4a2b76b47148f3df84e0a05381a1 -->
<g id="node2" class="node">
<title>c0b28cdde9ec4a2b76b47148f3df84e0a05381a1</title>
<polygon fill="none" stroke="#000000" points="375.4123,-52 326.6854,-52 326.6854,-36 375.4123,-36 375.4123,-52"/>
<text text-anchor="middle" x="351.0488" y="-41.6" font-family="Times,serif" font-size="8.00" fill="#000000">tags/1.0^2</text>
</g>
<!-- c0b28cdde9ec4a2b76b47148f3df84e0a05381a1&#45;&gt;a9d99cc79a7c93cc70e02cb1324e86f7bb17057b -->
<g id="edge2" class="edge">
<title>c0b28cdde9ec4a2b76b47148f3df84e0a05381a1&#45;&gt;a9d99cc79a7c93cc70e02cb1324e86f7bb17057b</title>
<path fill="none" stroke="#000000" d="M369.0461,-52.0588C383.4477,-58.5076 403.546,-67.5071 417.9407,-73.9528"/>
</g>
<!-- ec4e31b98dd196014c7d3853c7f16c0dbe879bf6 -->
<g id="node3" class="node">
<title>ec4e31b98dd196014c7d3853c7f16c0dbe879bf6</title>
<polygon fill="none" stroke="#000000" points="290.4271,-16 234.1901,-16 234.1901,0 290.4271,0 290.4271,-16"/>
<text text-anchor="middle" x="262.3086" y="-5.6" font-family="Times,serif" font-size="8.00" fill="#000000">tags/1.0^2^2</text>
</g>
<!-- ec4e31b98dd196014c7d3853c7f16c0dbe879bf6&#45;&gt;c0b28cdde9ec4a2b76b47148f3df84e0a05381a1 -->
<g id="edge4" class="edge">
<title>ec4e31b98dd196014c7d3853c7f16c0dbe879bf6&#45;&gt;c0b28cdde9ec4a2b76b47148f3df84e0a05381a1</title>
<path fill="none" stroke="#000000" d="M282.4451,-16.169C297.0703,-22.1021 316.7626,-30.0908 331.2977,-35.9874"/>
</g>
<!-- 264f9d5a4da414201ac10068373eb4d5576bbe17 -->
<g id="node4" class="node">
<title>264f9d5a4da414201ac10068373eb4d5576bbe17</title>
<ellipse fill="#000000" stroke="#000000" cx="192.6" cy="-8" rx="5.4" ry="5.4"/>
</g>
<!-- 264f9d5a4da414201ac10068373eb4d5576bbe17&#45;&gt;ec4e31b98dd196014c7d3853c7f16c0dbe879bf6 -->
<g id="edge5" class="edge">
<title>264f9d5a4da414201ac10068373eb4d5576bbe17&#45;&gt;ec4e31b98dd196014c7d3853c7f16c0dbe879bf6</title>
<path fill="none" stroke="#000000" d="M198.0699,-8C205.8371,-8 220.6131,-8 234.0371,-8"/>
</g>
<!-- c7b140b9e6ed92536a21940b7e22c09728ba0802 -->
<g id="node5" class="node">
<title>c7b140b9e6ed92536a21940b7e22c09728ba0802</title>
<ellipse fill="#000000" stroke="#000000" cx="145.8" cy="-44" rx="5.4" ry="5.4"/>
</g>
<!-- c7b140b9e6ed92536a21940b7e22c09728ba0802&#45;&gt;c0b28cdde9ec4a2b76b47148f3df84e0a05381a1 -->
<g id="edge3" class="edge">
<title>c7b140b9e6ed92536a21940b7e22c09728ba0802&#45;&gt;c0b28cdde9ec4a2b76b47148f3df84e0a05381a1</title>
<path fill="none" stroke="#000000" d="M151.2899,-44C176.1527,-44 279.0418,-44 326.6632,-44"/>
</g>
<!-- c7b140b9e6ed92536a21940b7e22c09728ba0802&#45;&gt;264f9d5a4da414201ac10068373eb4d5576bbe17 -->
<g id="edge6" class="edge">
<title>c7b140b9e6ed92536a21940b7e22c09728ba0802&#45;&gt;264f9d5a4da414201ac10068373eb4d5576bbe17</title>
<path fill="none" stroke="#000000" d="M150.1189,-40.6777C158.9893,-33.8544 179.1785,-18.3242 188.155,-11.4192"/>
</g>
<!-- 4d911f8e051c45da5a25b525d975ec092510bd83 -->
<g id="node6" class="node">
<title>4d911f8e051c45da5a25b525d975ec092510bd83</title>
<ellipse fill="#000000" stroke="#000000" cx="99" cy="-44" rx="5.4" ry="5.4"/>
</g>
<!-- 4d911f8e051c45da5a25b525d975ec092510bd83&#45;&gt;c7b140b9e6ed92536a21940b7e22c09728ba0802 -->
<g id="edge7" class="edge">
<title>4d911f8e051c45da5a25b525d975ec092510bd83&#45;&gt;c7b140b9e6ed92536a21940b7e22c09728ba0802</title>
<path fill="none" stroke="#000000" d="M104.7386,-44C113.8184,-44 131.3802,-44 140.3053,-44"/>
</g>
<!-- f8889560b58c73b96b4237df048dcd1e65fb76ff -->
<g id="node7" class="node">
<title>f8889560b58c73b96b4237df048dcd1e65fb76ff</title>
<ellipse fill="#000000" stroke="#000000" cx="52.2" cy="-82" rx="5.4" ry="5.4"/>
</g>
<!-- f8889560b58c73b96b4237df048dcd1e65fb76ff&#45;&gt;a9d99cc79a7c93cc70e02cb1324e86f7bb17057b -->
<g id="edge1" class="edge">
<title>f8889560b58c73b96b4237df048dcd1e65fb76ff&#45;&gt;a9d99cc79a7c93cc70e02cb1324e86f7bb17057b</title>
<path fill="none" stroke="#000000" d="M57.686,-82C72.1158,-82 112.325,-82 145.8,-82 145.8,-82 145.8,-82 262.3086,-82 315.5048,-82 377.8701,-82 411.4746,-82"/>
</g>
<!-- f8889560b58c73b96b4237df048dcd1e65fb76ff&#45;&gt;4d911f8e051c45da5a25b525d975ec092510bd83 -->
<g id="edge8" class="edge">
<title>f8889560b58c73b96b4237df048dcd1e65fb76ff&#45;&gt;4d911f8e051c45da5a25b525d975ec092510bd83</title>
<path fill="none" stroke="#000000" d="M56.5189,-78.4932C65.3893,-71.2908 85.5785,-54.8978 94.555,-47.6092"/>
</g>
<!-- 4cfc77308309506abd61d4a331c9ff6404d96424 -->
<g id="node8" class="node">
<title>4cfc77308309506abd61d4a331c9ff6404d96424</title>
<ellipse fill="#000000" stroke="#000000" cx="5.4" cy="-82" rx="5.4" ry="5.4"/>
</g>
<!-- 4cfc77308309506abd61d4a331c9ff6404d96424&#45;&gt;f8889560b58c73b96b4237df048dcd1e65fb76ff -->
<g id="edge9" class="edge">
<title>4cfc77308309506abd61d4a331c9ff6404d96424&#45;&gt;f8889560b58c73b96b4237df048dcd1e65fb76ff</title>
<path fill="none" stroke="#000000" d="M11.1386,-82C20.2184,-82 37.7802,-82 46.7053,-82"/>
</g>
</g>
</svg>
